<svg width="25" height="25" viewBox="0 0 25 25" fill="none" xmlns="http://www.w3.org/2000/svg">
<path d="M17.1634 13.05C19.3 13.05 21.0411 11.1469 21.0411 8.83125C21.0411 6.54197 19.3089 4.72857 17.1634 4.72857C15.0357 4.72857 13.2853 6.56875 13.2853 8.84911C13.2942 11.1558 15.0357 13.05 17.1634 13.05ZM6.82232 13.2473C8.67143 13.2473 10.1884 11.5866 10.1884 9.54911C10.1884 7.55625 8.68929 5.94955 6.82232 5.94955C4.97321 5.94955 3.44732 7.58348 3.45625 9.56697C3.46518 11.596 4.97321 13.2473 6.82232 13.2473ZM17.1634 11.6946C15.8527 11.6946 14.7304 10.4379 14.7304 8.84911C14.7304 7.28661 15.8348 6.08438 17.1634 6.08438C18.5009 6.08438 19.596 7.2692 19.596 8.83081C19.596 10.4201 18.492 11.6946 17.1634 11.6946ZM6.82232 11.9098C5.72723 11.9098 4.79375 10.8598 4.79375 9.56697C4.79375 8.30134 5.71786 7.28706 6.82232 7.28706C7.95312 7.28706 8.85982 8.28348 8.85982 9.54911C8.85982 10.8598 7.92634 11.9098 6.82232 11.9098ZM1.83125 21.479H8.87812C8.44687 21.2366 8.11473 20.6978 8.17768 20.1505H1.60714C1.42768 20.1505 1.33795 20.079 1.33795 19.908C1.33795 17.6821 3.87812 15.5996 6.81384 15.5996C7.94464 15.5996 8.95893 15.8688 9.82991 16.3804C10.1188 16.0146 10.4607 15.6939 10.8442 15.429C9.68616 14.6656 8.29509 14.271 6.81384 14.271C3.05223 14.271 0 16.9996 0 19.9888C0 20.9853 0.610268 21.479 1.83125 21.479ZM11.5259 21.479H22.8009C24.2906 21.479 25 21.0304 25 20.0429C25 17.6911 22.0286 14.2884 17.1634 14.2884C12.2888 14.2884 9.31786 17.6911 9.31786 20.0429C9.31786 21.0304 10.0268 21.479 11.5259 21.479ZM11.0951 20.1237C10.8616 20.1237 10.7629 20.0612 10.7629 19.8723C10.7629 18.4 13.0429 15.6446 17.1634 15.6446C21.275 15.6446 23.5545 18.4 23.5545 19.8723C23.5545 20.0607 23.4652 20.1237 23.2312 20.1237H11.0951Z" fill="black"/>
</svg>
